PathFileType	4	(X/Y/Z)	output.trc
DataRate	CameraRate	NumFrames	NumMarkers	Units	OrigDataRate	OrigDataStartFrame	OrigNumFrames
120	120	11	18	mm	120	847	1
Frame#	Time	K4ABT_JOINT_PELVISx			K4ABT_JOINT_SPINE_NAVEL			T8			C7			K4ABT_JOINT_CLAVICLE_LEFT			K4ABT_JOINT_SHOULDER_LEFT			K4ABT_JOINT_ELBOW_LEFT			K4ABT_JOINT_WRIST_LEFT			K4ABT_JOINT_HAND_LEFT			K4ABT_JOINT_HANDTIP_LEFT			K4ABT_JOINT_THUMB_LEFT			K4ABT_JOINT_CLAVICLE_RIGHT			GH			Elbow_Midpoint			Wrist_Midpointx			K4ABT_JOINT_HAND_RIGHT			K4ABT_JOINT_HANDTIP_RIGHT			K4ABT_JOINT_THUMB_RIGHTx
		X1	Y1	Z1	X2	Y2	Z2	X3	Y3	Z3	X4	Y4	Z4	X5	Y5	Z5	X6	Y6	Z6	X7	Y7	Z7	X8	Y8	Z8	X9	Y9	Z9	X10	Y10	Z10	X11	Y11	Z11	X12	Y12	Z12	X13	Y13	Z13	X14	Y14	Z14	X15	Y15	Z15	X16	Y16	Z16	X17	Y17	Z17	X18	Y18	Z18
847	16.256075	-269.668146	-253.740819	1562.888923	294.247747	-97.101301	1518.136459	301.323186	29.679290	1483.147038	290.417866	223.950857	1434.818628	294.688206	199.742372	1472.825294	276.688662	209.019316	1603.276424	69.674204	166.514780	1746.316059	-141.889994	149.469536	1775.045859	-187.321987	94.363440	1722.076529	-162.965375	5.155771	1684.592316	-122.841169	56.893627	1677.290274	291.689787	184.063924	1412.764171	284.315210	141.895452	1299.113001	24.341307	141.067859	1294.292665	-192.510020	140.191585	1289.949766	-274.802275	188.798603	1295.707508	-368.631963	216.184612	1287.576824	-284.165759	197.041741	1273.613587
848	16.264374	-269.662113	-253.736341	1562.889806	294.240752	-97.099507	1518.140880	301.312551	29.679074	1483.154431	290.395015	223.946556	1434.830886	294.666745	199.738143	1472.836230	276.670671	209.014406	1603.284779	69.675385	166.471952	1746.332868	-141.882716	149.400908	1775.062090	-187.309483	94.311544	1722.069077	-162.953487	5.112369	1684.564928	-122.837054	56.862563	1677.267001	291.669531	184.061021	1412.776121	284.301389	141.901729	1299.124034	24.333330	141.068584	1294.299203	-192.513321	140.182880	1289.945641	-274.806260	188.785993	1295.702865	-368.635801	216.164770	1287.572033	-284.163333	197.053895	1273.573248
849	16.272673	-269.656954	-253.736309	1562.895531	294.235532	-97.102007	1518.148451	301.306539	29.674588	1483.163420	290.375985	223.936286	1434.834612	294.648845	199.729787	1472.840063	276.656337	209.019169	1603.285555	69.677214	166.458821	1746.344948	-141.878821	149.375617	1775.056115	-187.300954	94.287213	1722.057631	-162.946487	5.090379	1684.548388	-122.834792	56.847072	1677.250804	291.653628	184.050881	1412.781468	284.296020	141.902973	1299.126881	24.332507	141.068515	1294.305550	-192.510409	140.178885	1289.950559	-274.802308	188.782147	1295.694315	-368.633259	216.151489	1287.569746	-284.160801	197.059990	1273.549604
850	16.280972	-269.652682	-253.740792	1562.906172	294.232112	-97.108866	1518.159219	301.305221	29.665768	1483.174030	290.360833	223.919956	1434.829674	294.634560	199.717242	1472.836687	276.645714	209.033751	1603.278639	69.679701	166.475841	1746.352229	-141.878362	149.394322	1775.027595	-187.296461	94.290864	1722.042128	-162.944450	5.090130	1684.542860	-122.834409	56.847389	1677.241790	291.642144	184.033394	1412.780113	284.299231	141.899109	1299.121415	24.338948	141.067642	1294.311703	-192.501188	140.179672	1289.964657	-274.790297	188.787198	1295.681796	-368.624239	216.144871	1287.570001	-284.158162	197.059936	1273.542910
851	16.289271	-269.648410	-253.745276	1562.916813	294.228693	-97.115724	1518.169986	301.303902	29.656947	1483.184639	290.345681	223.903627	1434.824737	294.620275	199.704696	1472.833311	276.635092	209.048334	1603.271722	69.682187	166.492861	1746.359511	-141.877902	149.413028	1774.999074	-187.291968	94.294516	1722.026626	-162.942413	5.089881	1684.537332	-122.834027	56.847707	1677.232776	291.630660	184.015907	1412.778757	284.302441	141.895245	1299.115948	24.345388	141.066768	1294.317856	-192.491968	140.180459	1289.978756	-274.778286	188.792248	1295.669277	-368.615219	216.138253	1287.570257	-284.155523	197.059881	1273.536215
852	16.297570	-269.644137	-253.749759	1562.927453	294.225274	-97.122583	1518.180754	301.302584	29.648126	1483.195249	290.330529	223.887297	1434.819799	294.605989	199.692151	1472.829935	276.624470	209.062916	1603.264805	69.684674	166.509880	1746.366792	-141.877442	149.431733	1774.970553	-187.287475	94.298168	1722.011124	-162.940376	5.089632	1684.531804	-122.833645	56.848025	1677.223762	291.619176	183.998420	1412.777402	284.305652	141.891381	1299.110482	24.351829	141.065894	1294.324009	-192.482747	140.181246	1289.992854	-274.766275	188.797299	1295.656759	-368.606200	216.131635	1287.570513	-284.152884	197.059826	1273.529520
853	16.305869	-269.643015	-253.767672	1562.947918	294.218437	-97.141778	1518.203199	301.303859	29.626886	1483.219805	290.300676	223.861812	1434.848333	294.576479	199.666997	1472.857752	276.545870	209.011729	1603.284345	69.565540	166.380784	1746.293797	-141.987719	149.230478	1774.887649	-187.435192	94.231782	1721.839043	-162.893787	5.046409	1684.470140	-122.796237	56.734088	1677.102548	291.599216	183.974367	1412.805532	284.316367	141.883452	1299.132962	24.367309	141.061539	1294.319339	-192.463255	140.181790	1289.968473	-274.745286	188.797272	1295.623780	-368.588558	216.120211	1287.558683	-284.147728	197.050585	1273.552477
854	16.314167	-269.645292	-253.800077	1562.978984	294.207911	-97.174285	1518.238246	301.307932	29.592246	1483.259410	290.254961	223.826446	1434.912986	294.530540	199.628238	1472.919229	276.393914	208.889570	1603.332434	69.315169	166.094015	1746.134177	-142.217490	148.791865	1774.746061	-187.747156	94.089820	1721.498000	-162.799122	4.956812	1684.347900	-122.718874	56.496860	1676.860262	291.570111	183.943227	1412.865479	284.335178	141.871136	1299.185597	24.392546	141.053426	1294.302988	-192.432677	140.182071	1289.902570	-274.714609	188.791766	1295.568721	-368.561613	216.103599	1287.533812	-284.139855	197.031431	1273.607431
855	16.322466	-269.647570	-253.832483	1563.010050	294.197385	-97.206792	1518.273293	301.312004	29.557605	1483.299015	290.209246	223.791081	1434.977638	294.484600	199.589479	1472.980707	276.241958	208.767412	1603.380523	69.064797	165.807246	1745.974557	-142.447262	148.353253	1774.604473	-188.059120	93.947859	1721.156957	-162.704456	4.867216	1684.225660	-122.641512	56.259633	1676.617975	291.541005	183.912087	1412.925425	284.353990	141.858820	1299.238233	24.417782	141.045314	1294.286638	-192.402100	140.182353	1289.836666	-274.683932	188.786260	1295.513663	-368.534669	216.086987	1287.508941	-284.131981	197.012276	1273.662385
856	16.330765	-269.649847	-253.864888	1563.041116	294.186859	-97.239300	1518.308340	301.316077	29.522964	1483.338620	290.163530	223.755715	1435.042291	294.438661	199.550720	1473.042184	276.090002	208.645254	1603.428612	68.814425	165.520478	1745.814936	-142.677033	147.914640	1774.462884	-188.371084	93.805897	1720.815914	-162.609791	4.777620	1684.103421	-122.564149	56.022405	1676.375689	291.511899	183.880947	1412.985372	284.372802	141.846504	1299.290868	24.443018	141.037201	1294.270288	-192.371523	140.182634	1289.770762	-274.653255	188.780754	1295.458605	-368.507724	216.070375	1287.484069	-284.124108	196.993122	1273.717339
857	16.339064	-269.643048	-253.911083	1563.094659	294.166581	-97.288320	1518.362745	301.320703	29.469035	1483.395211	290.071006	223.699919	1435.140268	294.346756	199.489558	1473.135042	275.817185	208.458569	1603.498343	68.346957	165.037966	1745.486391	-143.109706	147.135484	1774.139680	-188.950325	93.518210	1720.165696	-162.436774	4.580654	1683.887579	-122.415565	55.563410	1675.917658	291.450742	183.832276	1413.075516	284.402229	141.827149	1299.368861	24.482719	141.026767	1294.233130	-192.323424	140.188388	1289.652390	-274.608704	188.766692	1295.397341	-368.470966	216.036961	1287.489628	-284.114175	196.961549	1273.809536
